<svg id="visual" viewBox="0 0 900 600" width="900" height="600" xmlns="http://www.w3.org/2000/svg" xmlns:xlink="http://www.w3.org/1999/xlink" version="1.1"><path d="M735 600L734.7 583.3C734.3 566.7 733.7 533.3 723.8 500C714 466.7 695 433.3 680.7 400C666.3 366.7 656.7 333.3 665.7 300C674.7 266.7 702.3 233.3 713 200C723.7 166.7 717.3 133.3 709 100C700.7 66.7 690.3 33.3 685.2 16.7L680 0L900 0L900 16.7C900 33.3 900 66.7 900 100C900 133.3 900 166.7 900 200C900 233.3 900 266.7 900 300C900 333.3 900 366.7 900 400C900 433.3 900 466.7 900 500C900 533.3 900 566.7 900 583.3L900 600Z" fill="#abff84"></path><path d="M768 600L755.7 583.3C743.3 566.7 718.7 533.3 720 500C721.3 466.7 748.7 433.3 750.8 400C753 366.7 730 333.3 718 300C706 266.7 705 233.3 717 200C729 166.7 754 133.3 754.8 100C755.7 66.7 732.3 33.3 720.7 16.7L709 0L900 0L900 16.7C900 33.3 900 66.7 900 100C900 133.3 900 166.7 900 200C900 233.3 900 266.7 900 300C900 333.3 900 366.7 900 400C900 433.3 900 466.7 900 500C900 533.3 900 566.7 900 583.3L900 600Z" fill="#85de74"></path><path d="M773 600L779 583.3C785 566.7 797 533.3 802.3 500C807.7 466.7 806.3 433.3 799 400C791.7 366.7 778.3 333.3 772.5 300C766.7 266.7 768.3 233.3 769.2 200C770 166.7 770 133.3 775.5 100C781 66.7 792 33.3 797.5 16.7L803 0L900 0L900 16.7C900 33.3 900 66.7 900 100C900 133.3 900 166.7 900 200C900 233.3 900 266.7 900 300C900 333.3 900 366.7 900 400C900 433.3 900 466.7 900 500C900 533.3 900 566.7 900 583.3L900 600Z" fill="#61be64"></path><path d="M843 600L836.8 583.3C830.7 566.7 818.3 533.3 816.8 500C815.3 466.7 824.7 433.3 829.8 400C835 366.7 836 333.3 830.7 300C825.3 266.7 813.7 233.3 814.3 200C815 166.7 828 133.3 830.5 100C833 66.7 825 33.3 821 16.7L817 0L900 0L900 16.7C900 33.3 900 66.7 900 100C900 133.3 900 166.7 900 200C900 233.3 900 266.7 900 300C900 333.3 900 366.7 900 400C900 433.3 900 466.7 900 500C900 533.3 900 566.7 900 583.3L900 600Z" fill="#3f9e53"></path></svg>